<svg id="visual" viewBox="0 0 960 540" width="960" height="540" xmlns="http://www.w3.org/2000/svg" xmlns:xlink="http://www.w3.org/1999/xlink" version="1.1"><rect x="0" y="0" width="960" height="540" fill="#629677"></rect><path d="M0 337L120 337L120 339L240 339L240 306L360 306L360 347L480 347L480 320L600 320L600 300L720 300L720 280L840 280L840 359L960 359L960 270L960 541L960 541L840 541L840 541L720 541L720 541L600 541L600 541L480 541L480 541L360 541L360 541L240 541L240 541L120 541L120 541L0 541Z" fill="#585481"></path><path d="M0 400L120 400L120 403L240 403L240 341L360 341L360 408L480 408L480 424L600 424L600 404L720 404L720 391L840 391L840 393L960 393L960 373L960 541L960 541L840 541L840 541L720 541L720 541L600 541L600 541L480 541L480 541L360 541L360 541L240 541L240 541L120 541L120 541L0 541Z" fill="#51398d"></path><path d="M0 490L120 490L120 431L240 431L240 426L360 426L360 476L480 476L480 420L600 420L600 427L720 427L720 484L840 484L840 493L960 493L960 457L960 541L960 541L840 541L840 541L720 541L720 541L600 541L600 541L480 541L480 541L360 541L360 541L240 541L240 541L120 541L120 541L0 541Z" fill="#560090"></path></svg>