<svg data-v-6805eed4="" version="1.0" xmlns="http://www.w3.org/2000/svg" xmlns:xlink="http://www.w3.org/1999/xlink" width="100%" height="100%" viewBox="0 0 340.000000 250.000000" preserveAspectRatio="xMidYMid meet" color-interpolation-filters="sRGB" style="margin: auto;"> <rect data-v-6805eed4="" x="0" y="0" width="100%" height="100%" fill="#feffff" fill-opacity="1" class="background"></rect> <rect data-v-6805eed4="" x="0" y="0" width="100%" height="100%" fill="url(#watermark)" fill-opacity="1" class="watermarklayer"></rect> <g data-v-6805eed4="" fill="#000" class="iconlinesvg-g iconlinesvg" transform="translate(88.3955416828394,95.33063125610352)"><g class="tp-name" transform="translate(0,0)"><g transform="translate(0, 0)"><g data-gra="path-name" fill="#000" transform="scale(1)"><path d="M5.45-39.40L12.57-39.40L12.57-31.70L18.16-31.70L18.16-26.43L12.57-26.43L12.57-8.73Q12.57-6.91 13.29-6.11Q14.00-5.30 15.85-5.30L15.85-5.30Q17.08-5.30 18.34-5.60L18.34-5.60L18.34-0.09Q15.91 0.59 13.65 0.59L13.65 0.59Q5.45 0.59 5.45-8.47L5.45-8.47L5.45-26.43L0.23-26.43L0.23-31.70L5.45-31.70L5.45-39.40Z" transform="translate(-0.234375, 43.740234375)"></path></g></g><g transform="translate(22, 0)"><g data-gra="path-name" fill="#000" transform="scale(1)"><path d="M20.27-31.88L20.24-25.20Q18.84-25.43 17.34-25.43L17.34-25.43Q12.45-25.43 10.75-21.68L10.75-21.68L10.75 0L3.63 0L3.63-31.70L10.43-31.70L10.61-28.15Q13.18-32.29 17.75-32.29L17.75-32.29Q19.28-32.29 20.27-31.88L20.27-31.88Z" transform="translate(-3.6328125, 43.740234375)"></path></g></g><g transform="translate(42, 0)"><g data-gra="path-name" fill="#000" transform="scale(1)"><path d="M11.22-31.70L11.22 0L4.10 0L4.10-31.70L11.22-31.70ZM3.66-39.93L3.66-39.93Q3.66-41.57 4.70-42.66Q5.74-43.74 7.68-43.74Q9.61-43.74 10.66-42.66Q11.72-41.57 11.72-39.93L11.72-39.93Q11.72-38.32 10.66-37.25Q9.61-36.18 7.68-36.18Q5.74-36.18 4.70-37.25Q3.66-38.32 3.66-39.93Z" transform="translate(-3.662109375, 43.740234375)"></path></g></g><g transform="translate(73.5, 7.143435402213477)"><g><g class="imagesvg"><g><rect fill="#000" fill-opacity="0" stroke-width="2" x="0" y="0" width="27.855038994948526" height="38.039301070573046" class="image-rect"></rect> <svg x="0" y="0" width="27.855038994948526" height="38.039301070573046" filtersec="colorsb2632013067" class="image-svg-svg primary" style="overflow: visible;"><svg fill="#000000" xmlns="http://www.w3.org/2000/svg" xmlns:xlink="http://www.w3.org/1999/xlink" viewBox="3 0.8814899999999999 18 23.11851" version="1.1" x="0px" y="0px"><title>icon/victory-solid</title><desc>Created with Sketch.</desc><g stroke="none" stroke-width="1" fill="none" fill-rule="evenodd"><path d="M17.5,11 C17.318,11 17.146,11.037 16.984,11.097 C16.905,10.203 16.164,9.5 15.25,9.5 C15.004,9.5 14.77,9.552 14.558,9.644 L15.481,4.659 C15.632,3.845 15.094,3.062 14.279,2.911 C13.465,2.76 12.683,3.298 12.531,4.112 L11.589,9.198 C11.428,10.067 11.202,10.923 10.914,11.759 C10.637,10.968 10.432,10.153 10.301,9.325 L9.485,4.148 C9.356,3.33 8.589,2.771 7.771,2.9 C6.952,3.029 6.394,3.797 6.522,4.615 L7.843,13 L7.06,13 C5.922,13 5,13.922 5,15.06 L5,15.065 C5,15.659 5.257,16.225 5.703,16.615 L8.658,19.201 C8.876,19.391 9,19.665 9,19.954 L9,22 L17,22 L17,19.951 C17,19.652 17.045,19.354 17.133,19.068 L18.481,15.407 C18.824,14.477 19,13.492 19,12.5 C19,11.672 18.328,11 17.5,11" fill="#000000"></path></g></svg></svg> <!----></g></g></g></g><g transform="translate(124, 0)"><g data-gra="path-name" fill="#000" transform="scale(1)"><path d="M11.22-31.70L11.22 0L4.10 0L4.10-31.70L11.22-31.70ZM3.66-39.93L3.66-39.93Q3.66-41.57 4.70-42.66Q5.74-43.74 7.68-43.74Q9.61-43.74 10.66-42.66Q11.72-41.57 11.72-39.93L11.72-39.93Q11.72-38.32 10.66-37.25Q9.61-36.18 7.68-36.18Q5.74-36.18 4.70-37.25Q3.66-38.32 3.66-39.93Z" transform="translate(-3.662109375, 43.740234375)"></path></g></g><g transform="translate(136, 0)"><g data-gra="path-name" fill="#000" transform="scale(1)"><path d="M29.85 0L22.59 0Q22.12-0.91 21.77-2.96L21.77-2.96Q18.37 0.59 13.45 0.59L13.45 0.59Q8.67 0.59 5.65-2.14Q2.64-4.86 2.64-8.88L2.64-8.88Q2.64-13.95 6.40-16.66Q10.17-19.37 17.17-19.37L17.17-19.37L21.53-19.37L21.53-21.45Q21.53-23.91 20.16-25.39Q18.78-26.87 15.97-26.87L15.97-26.87Q13.54-26.87 11.98-25.65Q10.43-24.43 10.43-22.56L10.43-22.56L3.31-22.56Q3.31-25.17 5.04-27.44Q6.77-29.71 9.74-31.00Q12.71-32.29 16.38-32.29L16.38-32.29Q21.94-32.29 25.25-29.49Q28.56-26.69 28.65-21.62L28.65-21.62L28.65-7.32Q28.65-3.05 29.85-0.50L29.85-0.50L29.85 0ZM14.77-5.13L14.77-5.13Q16.88-5.13 18.74-6.15Q20.60-7.18 21.53-8.91L21.53-8.91L21.53-14.88L17.70-14.88Q13.74-14.88 11.75-13.51Q9.76-12.13 9.76-9.61L9.76-9.61Q9.76-7.56 11.12-6.34Q12.48-5.13 14.77-5.13Z" transform="translate(-2.63671875, 43.740234375)"></path></g></g></g> <g data-gra="path-slogan" fill-rule="" class="tp-slogan" fill="#000" transform="translate(5,51.1825065612793)"><rect x="0" height="1" y="3.580000400543213" width="58.02883243560791"></rect> <rect height="1" y="3.580000400543213" width="58.02883243560791" x="95.18883419036865"></rect> <g transform="translate(61.02883243560791,0)"><g transform="scale(1)"><path d="M1.08-7.87L1.08 0L2.03 0L2.03-4.12C2.03-4.53 2.01-4.95 1.99-5.36C1.96-5.77 1.93-6.18 1.90-6.58L1.94-6.58L2.80-4.96L5.65 0L6.68 0L6.68-7.87L5.74-7.87L5.74-3.80C5.74-3.39 5.75-2.97 5.78-2.54C5.81-2.11 5.83-1.70 5.86-1.30L5.81-1.30L4.96-2.93L2.11-7.87ZM8.84-7.87L8.84 0L9.84 0L9.84-7.87ZM11.54-3.94C11.54-3.30 11.63-2.72 11.81-2.21C11.98-1.71 12.23-1.28 12.54-0.93C12.85-0.58 13.22-0.32 13.66-0.13C14.09 0.05 14.56 0.14 15.08 0.14C15.61 0.14 16.09 0.06 16.51-0.11C16.93-0.29 17.26-0.50 17.52-0.77L17.52-4.08L14.94-4.08L14.94-3.25L16.61-3.25L16.61-1.20C16.45-1.06 16.24-0.94 15.99-0.86C15.74-0.77 15.47-0.73 15.19-0.73C14.77-0.73 14.39-0.81 14.07-0.96C13.75-1.11 13.47-1.33 13.25-1.61C13.03-1.89 12.87-2.23 12.75-2.62C12.63-3.02 12.58-3.46 12.58-3.96C12.58-4.45 12.64-4.89 12.76-5.28C12.89-5.67 13.06-6.01 13.28-6.28C13.51-6.56 13.78-6.77 14.10-6.92C14.42-7.07 14.78-7.14 15.18-7.14C15.58-7.14 15.91-7.07 16.17-6.93C16.43-6.79 16.66-6.62 16.86-6.41L17.42-7.04C17.19-7.28 16.89-7.51 16.53-7.71C16.17-7.91 15.71-8.02 15.17-8.02C14.64-8.02 14.16-7.92 13.72-7.73C13.28-7.55 12.89-7.28 12.57-6.92C12.25-6.57 11.99-6.14 11.81-5.64C11.63-5.14 11.54-4.57 11.54-3.94ZM19.40-7.87L19.40 0L20.40 0L20.40-3.71L24.06-3.71L24.06 0L25.07 0L25.07-7.87L24.06-7.87L24.06-4.57L20.40-4.57L20.40-7.87ZM28.86-7.03L28.86 0L29.87 0L29.87-7.03L32.24-7.03L32.24-7.87L26.48-7.87L26.48-7.03Z" transform="translate(-1.08, 8.016)"></path></g></g></g></g><defs v-gra="od"></defs></svg>